<?xml version="1.0" encoding="UTF-8"?>
<svg width="23px" height="34px" viewBox="0 0 23 34" version="1.1" xmlns="http://www.w3.org/2000/svg" xmlns:xlink="http://www.w3.org/1999/xlink">
    <!-- Generator: Sketch 42 (36781) - http://www.bohemiancoding.com/sketch -->
    <title>Untitled 3</title>
    <desc>Created with Sketch.</desc>
    <defs>
        <radialGradient cx="49.7316853%" cy="47.3094801%" fx="49.7316853%" fy="47.3094801%" r="50%" id="radialGradient-1">
            <stop stop-color="#000000" stop-opacity="0.4" offset="0%"></stop>
            <stop stop-color="#000000" stop-opacity="0.25" offset="50.839555%"></stop>
            <stop stop-color="#000000" stop-opacity="0" offset="100%"></stop>
        </radialGradient>
    </defs>
    <g id="Page-1" stroke="none" stroke-width="1" fill="none" fill-rule="evenodd">
        <g id="marker-small" fill-rule="nonzero">
            <ellipse id="ellipse9146" fill="url(#radialGradient-1)" cx="11.500005" cy="27.500019" rx="10.5" ry="5.4999828"></ellipse>
            <path d="M11.5,4e-05 C5.1487,4e-05 -9.9999854e-06,5.14874 0,11.50004 C0,16.48523 3.17747,20.71735 7.61328,22.31254 C9.29579,25.36164 11.51758,28.00004 11.51758,28.00004 C11.51758,28.00004 13.72438,25.35937 15.39648,22.30863 C19.82711,20.71069 23,16.48152 23,11.50004 C23.00001,5.14874 17.85128,4e-05 11.5,4e-05 Z" id="path9160" fill="#3FB1CE"></path>
            <path d="M11.5,4e-05 C5.1487,4e-05 -9.9999854e-06,5.14874 0,11.50004 C0,16.48522 3.17747,20.71735 7.61328,22.31254 C9.29541,25.36219 11.51757,28.00004 11.51757,28.00004 C11.51757,28.00004 13.72649,25.36026 15.39843,22.30863 C19.82816,20.71021 23,16.48086 23,11.50004 C23.00001,5.14874 17.85128,4e-05 11.5,4e-05 Z M11.5,2.00004 C16.74671,2.00004 21.00001,6.25334 21,11.50004 C21,16.74674 16.7467,21.00004 11.5,21.00004 C6.25329,21.00004 2,16.74674 2,11.50004 C1.99999,6.25334 6.25327,2.00004 11.5,2.00004 L11.5,2.00004 Z" id="path9160-1" fill="#000000" opacity="0.1"></path>
        </g>
        <g id="ski" transform="translate(6.000000, 6.000000)" fill-rule="nonzero" fill="#000000">
            <g id="Layer_1">
                <path d="M8,3.5 L5,3.5 L5,2.1 C5.1992,1.9817 5.3512,1.7979 5.43,1.58 L8.5,1 C8.7761,1 9,0.7761 9,0.5 C9,0.2239 8.7761,0 8.5,0 L5.25,0.61 C4.8847,0.1957 4.2528,0.156 3.8386,0.5213 C3.713,0.6321 3.6172,0.7726 3.56,0.93 L0.5,1.5 C0.2239,1.5 0,1.7239 0,2 C0,2.2761 0.2239,2.5 0.5,2.5 L3.75,1.89 C3.8213,1.9732 3.9057,2.0442 4,2.1 L4,3.5 L1,3.5 C0.4477,3.5 0,3.9477 0,4.5 L0,8 C0,8.5523 0.4477,9 1,9 L8,9 C8.5523,9 9,8.5523 9,8 L9,4.5 C9,3.9477 8.5523,3.5 8,3.5 Z M4,7.5 L1.5,7.5 L1.5,4.5 L4,4.5 L4,7.5 Z M7.5,7.5 L5,7.5 L5,4.5 L7.5,4.5 L7.5,7.5 Z" id="Shape"></path>
            </g>
        </g>
    </g>
</svg>
