<svg width="27px" height="41px" viewBox="0 0 27 41" version="1.1" xmlns="http://www.w3.org/2000/svg" xmlns:xlink="http://www.w3.org/1999/xlink">
    <!-- Generator: Sketch 42 (36781) - http://www.bohemiancoding.com/sketch -->
    <desc>Created with Sketch.</desc>
    <defs></defs>
    <g id="marker-large" stroke="none" stroke-width="1" fill="none" fill-rule="evenodd">
        <g id="Page-1" fill-rule="nonzero">
            <g id="shadow" transform="translate(3.000000, 29.000000)" fill="#000000">
                <ellipse id="ellipse9048" opacity="0.04" cx="10.5" cy="5.80029008" rx="10.5" ry="5.25002273"></ellipse>
                <ellipse id="ellipse8490" opacity="0.04" cx="10.5" cy="5.80029008" rx="10.5" ry="5.25002273"></ellipse>
                <ellipse id="ellipse8492" opacity="0.04" cx="10.5" cy="5.80029008" rx="9.5" ry="4.77275007"></ellipse>
                <ellipse id="ellipse8494" opacity="0.04" cx="10.5" cy="5.80029008" rx="8.5" ry="4.29549936"></ellipse>
                <ellipse id="ellipse8496" opacity="0.04" cx="10.5" cy="5.80029008" rx="7.5" ry="3.81822308"></ellipse>
                <ellipse id="ellipse8498" opacity="0.04" cx="10.5" cy="5.80029008" rx="6.5" ry="3.34094679"></ellipse>
                <ellipse id="ellipse8500" opacity="0.04" cx="10.5" cy="5.80029008" rx="5.5" ry="2.86367051"></ellipse>
                <ellipse id="ellipse8502" opacity="0.04" cx="10.5" cy="5.80029008" rx="4.5" ry="2.38636864"></ellipse>
            </g>
            <g id="background" fill="#3FB1CE">
                <path d="M27,13.5 C27,19.074644 20.250001,27.000002 14.75,34.500002 C14.016665,35.500004 12.983335,35.500004 12.25,34.500002 C6.7499993,27.000002 0,19.222562 0,13.5 C0,6.0441559 6.0441559,0 13.5,0 C20.955844,0 27,6.0441559 27,13.5 Z" id="path12645"></path>
            </g>
            <g id="border" opacity="0.25" fill="#000000">
                <path d="M13.5,0 C6.0441559,0 0,6.0441559 0,13.5 C0,19.222562 6.7499993,27 12.25,34.5 C13,35.522727 14.016664,35.500004 14.75,34.5 C20.250001,27 27,19.074644 27,13.5 C27,6.0441559 20.955844,0 13.5,0 Z M13.5,1 C20.415404,1 26,6.584596 26,13.5 C26,15.898657 24.495584,19.181431 22.220703,22.738281 C19.945823,26.295132 16.705119,30.142167 13.943359,33.908203 C13.743445,34.180814 13.612715,34.322738 13.5,34.441406 C13.387285,34.322738 13.256555,34.180814 13.056641,33.908203 C10.284481,30.127985 7.4148684,26.314159 5.015625,22.773438 C2.6163816,19.232715 1,15.953538 1,13.5 C1,6.584596 6.584596,1 13.5,1 Z" id="path12645-9"></path>
            </g>
            <g id="maki" transform="translate(6.000000, 7.000000)" fill="#FFFFFF"></g>
            <g id="cirlce" transform="translate(8.000000, 8.000000)">
                <circle id="path14386" fill="#000000" opacity="0.25" cx="5.5" cy="5.5" r="5.4999962"></circle>
                <circle id="circle14388" fill="#FFFFFF" cx="5.5" cy="5.5" r="4.4999962"></circle>
            </g>
        </g>
    </g>
</svg>
