<svg width="23px" height="58px" viewBox="0 0 23 58" version="1.1" xmlns="http://www.w3.org/2000/svg" xmlns:xlink="http://www.w3.org/1999/xlink">
    <g id="Page-1">
        <g id="marker-small">
            <path d="M22,27.500019 C22.0000001,28.9587052 20.8937533,30.3576474 18.9246213,31.3890943 C16.9554894,32.4205412 14.2847732,33.000002 11.5,33.000002 C8.71522679,33.000002 6.04451065,32.4205412 4.07537866,31.3890943 C2.10624668,30.3576474 0.999999899,28.9587052 1,27.500019 C0.999999899,26.0413328 2.10624668,24.6423906 4.07537866,23.6109437 C6.04451065,22.5794968 8.71522679,22.000036 11.5,22.000036 C14.2847732,22.000036 16.9554894,22.5794968 18.9246213,23.6109437 C20.8937533,24.6423906 22.0000001,26.0413328 22,27.500019 L22,27.500019 Z" id="ellipse9146" fill="#000000" fill-rule="nonzero" opacity="0.03999999"></path>
            <path d="M21,27.500019 C21.0000001,28.8260964 19.9991101,30.0978611 18.2175145,31.0355395 C16.4359189,31.9732178 14.0195567,32.5 11.5,32.5 C8.98044331,32.5 6.56408111,31.9732178 4.78248551,31.0355395 C3.00088991,30.0978611 1.99999995,28.8260964 2,27.500019 C1.99999995,26.1739416 3.00088991,24.9021769 4.78248551,23.9644985 C6.56408111,23.0268202 8.98044331,22.500038 11.5,22.500038 C14.0195567,22.500038 16.4359189,23.0268202 18.2175145,23.9644985 C19.9991101,24.9021769 21.0000001,26.1739416 21,27.500019 L21,27.500019 Z" id="ellipse5928" fill="#000000" fill-rule="nonzero" opacity="0.03999999"></path>
            <path d="M20,27.500019 C20.0000001,28.6934882 19.1044669,29.8380759 17.5104077,30.6819861 C15.9163485,31.5258962 13.7543402,32 11.5,32 C9.2456598,32 7.08365152,31.5258962 5.48959229,30.6819861 C3.89553307,29.8380759 2.99999995,28.6934882 3,27.500019 C2.99999995,26.3065498 3.89553307,25.1619621 5.48959229,24.3180519 C7.08365152,23.4741418 9.2456598,23.000038 11.5,23.000038 C13.7543402,23.000038 15.9163485,23.4741418 17.5104077,24.3180519 C19.1044669,25.1619621 20.0000001,26.3065498 20,27.500019 Z" id="ellipse5948" fill="#000000" fill-rule="nonzero" opacity="0.03999999"></path>
            <path d="M19,27.500019 C19,28.5608799 18.2098238,29.5782907 16.8033009,30.3284327 C15.3967781,31.0785746 13.4891237,31.5 11.5,31.5 C9.51087629,31.5 7.60322192,31.0785746 6.19669907,30.3284327 C4.79017623,29.5782907 3.99999995,28.5608799 4,27.500019 C3.99999995,26.4391581 4.79017623,25.4217473 6.19669907,24.6716053 C7.60322192,23.9214634 9.51087629,23.500038 11.5,23.500038 C13.4891237,23.500038 15.3967781,23.9214634 16.8033009,24.6716053 C18.2098238,25.4217473 19,26.4391581 19,27.500019 L19,27.500019 Z" id="ellipse5950" fill="#000000" fill-rule="nonzero" opacity="0.03999999"></path>
            <path d="M18,27.500019 C18,28.4282717 17.3151806,29.3185055 16.0961941,29.9748793 C14.8772077,30.6312531 13.2239072,31 11.5,31 C9.77609278,31 8.12279232,30.6312531 6.90380586,29.9748793 C5.68481939,29.3185055 4.99999995,28.4282717 5,27.500019 C4.99999995,26.5717663 5.68481939,25.6815325 6.90380586,25.0251587 C8.12279232,24.3687849 9.77609278,24.000038 11.5,24.000038 C13.2239072,24.000038 14.8772077,24.3687849 16.0961941,25.0251587 C17.3151806,25.6815325 18,26.5717663 18,27.500019 Z" id="ellipse5952" fill="#000000" fill-rule="nonzero" opacity="0.03999999"></path>
            <path d="M17,27.500019 C17,28.2956634 16.4205374,29.0587203 15.3890874,29.6213259 C14.3576373,30.1839315 12.9586907,30.5 11.5,30.5 C10.0413093,30.5 8.64236273,30.1839315 7.61091264,29.6213259 C6.57946255,29.0587203 5.99999995,28.2956634 6,27.500019 C5.99999995,26.7043746 6.57946255,25.9413177 7.61091264,25.3787121 C8.64236273,24.8161065 10.0413093,24.500038 11.5,24.500038 C12.9586907,24.500038 14.3576373,24.8161065 15.3890874,25.3787121 C16.4205374,25.9413177 17,26.7043746 17,27.500019 L17,27.500019 Z" id="ellipse5954" fill="#000000" fill-rule="nonzero" opacity="0.03999999"></path>
            <path d="M16,27.500019 C16,28.1630552 15.5258943,28.7989351 14.6819806,29.2677725 C13.8380669,29.7366099 12.6934742,30 11.5,30 C10.3065258,30 9.16193313,29.7366099 8.31801942,29.2677725 C7.47410571,28.7989351 6.99999995,28.1630552 7,27.500019 C6.99999995,26.8369828 7.47410571,26.2011029 8.31801942,25.7322655 C9.16193313,25.2634281 10.3065258,25.000038 11.5,25.000038 C12.6934742,25.000038 13.8380669,25.2634281 14.6819806,25.7322655 C15.5258943,26.2011029 16,26.8369828 16,27.500019 L16,27.500019 Z" id="ellipse5956" fill="#000000" fill-rule="nonzero" opacity="0.03999999"></path>
            <path d="M11.5,4e-05 C5.1487,4e-05 -1e-05,5.14874 0,11.50004 C0,16.48523 3.17747,20.71735 7.61328,22.31254 C9.29579,25.36164 11.51758,28.00004 11.51758,28.00004 C11.51758,28.00004 13.72438,25.35937 15.39648,22.30863 C19.82711,20.71069 23,16.48152 23,11.50004 C23.00001,5.14874 17.85128,4e-05 11.5,4e-05 Z" id="path9160" fill="#3FB1CE" fill-rule="nonzero"></path>
            <path d="M11.5,4e-05 C5.1487,4e-05 -1e-05,5.14874 0,11.50004 C0,16.48522 3.17747,20.71735 7.61328,22.31254 C9.29541,25.36219 11.51757,28.00004 11.51757,28.00004 C11.51757,28.00004 13.72649,25.36026 15.39843,22.30863 C19.82816,20.71021 23,16.48086 23,11.50004 C23.00001,5.14874 17.85128,4e-05 11.5,4e-05 Z M11.5,2.00004 C16.74671,2.00004 21.00001,6.25334 21,11.50004 C21,16.74674 16.7467,21.00004 11.5,21.00004 C6.25329,21.00004 2,16.74674 2,11.50004 C1.99999,6.25334 6.25327,2.00004 11.5,2.00004 L11.5,2.00004 Z" id="path9160-1" fill="#000000" fill-rule="nonzero" opacity="0.1"></path>
        </g>
        <g id="maki" transform="translate(6.000000, 6.000000)" fill-rule="nonzero" fill="#000000">
            <g id="Layer_1"></g>
        </g>
        <path d="M2,56 L2,56" id="Line" stroke="#979797" stroke-linecap="square"></path>
    </g>
</svg>
