<svg width="28px" height="64px" viewBox="0 0 28 64" version="1.1" xmlns="http://www.w3.org/2000/svg" xmlns:xlink="http://www.w3.org/1999/xlink">
    <g id="Page-1">
        <g id="marker-large">
            <ellipse id="ellipse9048" fill="#000000" opacity="0.03999999" cx="13.5" cy="30.0684184" rx="10.5" ry="5.25002273"></ellipse>
            <ellipse id="ellipse8490" fill="#000000" opacity="0.03999999" cx="13.5" cy="30.0684184" rx="10.5" ry="5.25002273"></ellipse>
            <ellipse id="ellipse8492" fill="#000000" opacity="0.03999999" cx="13.5" cy="30.0684184" rx="9.5" ry="4.77275007"></ellipse>
            <ellipse id="ellipse8494" fill="#000000" opacity="0.03999999" cx="13.5" cy="30.0684184" rx="8.5" ry="4.29549936"></ellipse>
            <ellipse id="ellipse8496" fill="#000000" opacity="0.03999999" cx="13.5" cy="30.0684184" rx="7.5" ry="3.81822308"></ellipse>
            <ellipse id="ellipse8498" fill="#000000" opacity="0.03999999" cx="13.5" cy="30.0684184" rx="6.5" ry="3.34094679"></ellipse>
            <ellipse id="ellipse8500" fill="#000000" opacity="0.03999999" cx="13.5" cy="30.0684184" rx="5.5" ry="2.86367051"></ellipse>
            <ellipse id="ellipse8502" fill="#000000" opacity="0.03999999" cx="13.5" cy="30.0684184" rx="4.5" ry="2.38636864"></ellipse>
            <path d="M13.5,2.86365772e-05 C6.04414,2.86365772e-05 -9.9999876e-06,5.76947802 0,12.8864884 C0,18.7389934 4.09113,23.6723406 9.68945,25.2434673 C11.36252,28.0990113 13.51758,30.5457109 13.51758,30.5457109 C13.51758,30.5457109 15.65767,28.0967777 17.32031,25.2397446 C22.91352,23.6655442 27,18.7355188 27,12.8864884 C27.00001,5.76947802 20.95586,2.86365772e-05 13.5,2.86365772e-05 Z" id="path9173" fill="#3FB1CE"></path>
            <path d="M13.5,2.86365772e-05 C6.04414,2.86365772e-05 -9.9999876e-06,5.76943984 0,12.8864884 C0,18.7389924 4.091128,23.6723387 9.689453,25.2434692 C11.362523,28.0990132 13.517578,30.5457109 13.517578,30.5457109 C13.517578,30.5457109 15.65778,28.0980673 17.320312,25.241605 C17.320588,25.2411315 17.320037,25.2401731 17.320312,25.2396959 C22.913519,23.6655442 27,18.7355178 27,12.8864884 C27.00001,5.76943984 20.95586,2.86365772e-05 13.5,2.86365772e-05 Z M13.5,1.90913378 C19.8513,1.90913378 25.00001,6.82383861 25,12.8864884 C25,18.9491381 19.85129,23.8638429 13.5,23.8638429 C7.14871,23.8638429 2,18.9491381 2,12.8864884 C1.99999,6.82383861 7.1487,1.90913378 13.5,1.90913378 L13.5,1.90913378 Z" id="path9066" fill="#000000" opacity="0.3"></path>
        </g>
        <g id="maki" transform="translate(6.000000, 6.000000)" fill-rule="nonzero" fill="#000000">
            <g id="Layer_1"></g>
        </g>
        <path d="M1,63.0153846 L1,63.0153846" id="Line" stroke-linecap="square"></path>
    </g>
</svg>
