<?xml version="1.0" encoding="UTF-8"?>
<svg width="23px" height="34px" viewBox="0 0 23 34" version="1.1" xmlns="http://www.w3.org/2000/svg" xmlns:xlink="http://www.w3.org/1999/xlink">
    <defs>
        <radialGradient cx="49.7316853%" cy="47.3094801%" fx="49.7316853%" fy="47.3094801%" r="50%" id="radialGradient-1">
            <stop stop-color="#000000" stop-opacity="0.4" offset="0%"></stop>
            <stop stop-color="#000000" stop-opacity="0.25" offset="50.839555%"></stop>
            <stop stop-color="#000000" stop-opacity="0" offset="100%"></stop>
        </radialGradient>
    </defs>
    <g id="Page-1" stroke="none" stroke-width="1" fill="none" fill-rule="evenodd">
        <g id="marker-small" fill-rule="nonzero">
            <ellipse id="ellipse9146" fill="url(#radialGradient-1)" cx="11.500005" cy="27.500019" rx="10.5" ry="5.4999828"></ellipse>
            <path d="M11.5,4e-05 C5.1487,4e-05 -9.9999854e-06,5.14874 0,11.50004 C0,16.48523 3.17747,20.71735 7.61328,22.31254 C9.29579,25.36164 11.51758,28.00004 11.51758,28.00004 C11.51758,28.00004 13.72438,25.35937 15.39648,22.30863 C19.82711,20.71069 23,16.48152 23,11.50004 C23.00001,5.14874 17.85128,4e-05 11.5,4e-05 Z" id="path9160" fill="#3FB1CE"></path>
            <path d="M11.5,4e-05 C5.1487,4e-05 -9.9999854e-06,5.14874 0,11.50004 C0,16.48522 3.17747,20.71735 7.61328,22.31254 C9.29541,25.36219 11.51757,28.00004 11.51757,28.00004 C11.51757,28.00004 13.72649,25.36026 15.39843,22.30863 C19.82816,20.71021 23,16.48086 23,11.50004 C23.00001,5.14874 17.85128,4e-05 11.5,4e-05 Z M11.5,2.00004 C16.74671,2.00004 21.00001,6.25334 21,11.50004 C21,16.74674 16.7467,21.00004 11.5,21.00004 C6.25329,21.00004 2,16.74674 2,11.50004 C1.99999,6.25334 6.25327,2.00004 11.5,2.00004 L11.5,2.00004 Z" id="path9160-1" fill="#fff" opacity="0.3"></path>
        </g>
        <g id="maki" transform="translate(6.000000, 6.000000)" fill-rule="nonzero" fill="#000000">
            <g id="Layer_1"></g>
        </g>
        <text id="text" font-family="OpenSansEmoji-Regular, OpenSansEmoji" font-size="11" font-weight="normal" fill="#515151">
        </text>
    </g>
</svg>
